<svg width="121" height="41" viewBox="0 0 121 41" fill="none" xmlns="http://www.w3.org/2000/svg">
<g clip-path="url(#clip0_0_9734)">
<path d="M110.503 0.183594H9.90296C9.53596 0.183594 9.17296 0.183594 8.80796 0.185594C8.50196 0.187594 8.19796 0.193594 7.88896 0.198594C7.21748 0.205926 6.54754 0.264429 5.88496 0.373594C5.22368 0.485801 4.58313 0.697182 3.98496 1.00059C3.38667 1.30695 2.84005 1.7051 2.36496 2.18059C1.88821 2.65392 1.49079 3.20092 1.18796 3.80059C0.884036 4.39944 0.673277 5.04116 0.562958 5.70359C0.451685 6.3653 0.39184 7.03464 0.383958 7.70559C0.373958 8.01259 0.373958 8.32059 0.368958 8.62659V31.7436C0.373958 32.0536 0.374958 32.3536 0.383958 32.6646C0.392166 33.3356 0.452346 34.0049 0.563958 34.6666C0.673565 35.3297 0.884001 35.9721 1.18796 36.5716C1.49108 37.169 1.88889 37.7133 2.36596 38.1836C2.83871 38.6607 3.38499 39.0587 3.98396 39.3626C4.58248 39.6666 5.22331 39.879 5.88496 39.9926C6.5476 40.1015 7.21748 40.1607 7.88896 40.1696C8.19896 40.1766 8.50196 40.1806 8.80796 40.1806C9.17396 40.1826 9.53596 40.1826 9.90296 40.1826H110.503C110.863 40.1826 111.227 40.1826 111.587 40.1806C111.891 40.1806 112.204 40.1766 112.509 40.1706C113.179 40.1618 113.848 40.1023 114.509 39.9926C115.173 39.8782 115.816 39.6659 116.417 39.3626C117.016 39.0586 117.561 38.6605 118.034 38.1836C118.51 37.7109 118.909 37.1663 119.216 36.5696C119.518 35.9698 119.727 35.3274 119.835 34.6646C119.946 34.0028 120.008 33.3336 120.02 32.6626C120.024 32.3526 120.024 32.0526 120.024 31.7416C120.032 31.3776 120.032 31.0166 120.032 30.6476V9.71959C120.032 9.35359 120.032 8.98959 120.024 8.62759C120.024 8.32159 120.024 8.01359 120.02 7.70759C120.008 7.03626 119.946 6.36673 119.835 5.70459C119.726 5.0425 119.517 4.40083 119.215 3.80159C118.598 2.59871 117.619 1.61948 116.417 1.00159C115.816 0.698866 115.173 0.48754 114.509 0.374594C113.848 0.264631 113.179 0.205791 112.509 0.198594C112.204 0.193594 111.891 0.187594 111.587 0.185594C111.227 0.183594 110.862 0.183594 110.503 0.183594Z" fill="#A6A6A6"/>
<path d="M8.81295 39.3086C8.50795 39.3086 8.21095 39.3046 7.90895 39.2986C7.28242 39.2902 6.65738 39.2354 6.03895 39.1346C5.46279 39.0352 4.90466 38.8505 4.38295 38.5866C3.86584 38.325 3.39415 37.9819 2.98595 37.5706C2.57202 37.1637 2.22746 36.6918 1.96595 36.1736C1.70102 35.6523 1.51755 35.0935 1.42195 34.5166C1.31925 33.8967 1.26375 33.2699 1.25595 32.6416C1.24895 32.4316 1.24095 31.7286 1.24095 31.7286V8.62859C1.24095 8.62859 1.24995 7.93659 1.25595 7.73359C1.2634 7.10631 1.31856 6.48051 1.42095 5.86159C1.51656 5.28312 1.70001 4.72265 1.96495 4.19959C2.22566 3.6819 2.56842 3.20979 2.97995 2.80159C3.39091 2.38937 3.86399 2.04417 4.38195 1.77859C4.90259 1.51549 5.45981 1.3321 6.03495 1.23459C6.65531 1.13316 7.2824 1.07834 7.91095 1.07059L8.81295 1.05859H111.582L112.495 1.07159C113.117 1.07882 113.739 1.13297 114.353 1.23359C114.934 1.33231 115.497 1.517 116.024 1.78159C117.062 2.31647 117.906 3.16267 118.439 4.20159C118.699 4.72114 118.88 5.27709 118.974 5.85059C119.078 6.47452 119.136 7.1052 119.148 7.73759C119.151 8.02059 119.151 8.32559 119.151 8.62759C119.159 9.00259 119.159 9.35959 119.159 9.71959V30.6486C119.159 31.0116 119.159 31.3666 119.151 31.7236C119.151 32.0486 119.151 32.3466 119.147 32.6536C119.136 33.2746 119.079 33.8939 118.977 34.5066C118.884 35.0877 118.702 35.6509 118.437 36.1766C118.173 36.6892 117.83 37.1569 117.421 37.5626C117.012 37.9763 116.539 38.3213 116.021 38.5846C115.496 38.8507 114.933 39.0361 114.353 39.1346C113.735 39.2355 113.11 39.29 112.484 39.2976C112.191 39.3046 111.884 39.3086 111.587 39.3086L110.503 39.3106L8.81295 39.3086Z" fill="black"/>
<path d="M25.137 20.4836C25.1478 19.6492 25.3696 18.831 25.7815 18.1053C26.1934 17.3796 26.7821 16.7698 27.493 16.3326C27.0413 15.6875 26.4456 15.1567 25.753 14.7821C25.0604 14.4075 24.29 14.1995 23.503 14.1746C21.823 13.9986 20.195 15.1796 19.339 15.1796C18.467 15.1796 17.149 14.1916 15.731 14.2216C14.8132 14.2512 13.9189 14.5181 13.135 14.9962C12.3511 15.4742 11.7044 16.1472 11.258 16.9496C9.32395 20.2976 10.767 25.2186 12.619 27.9256C13.546 29.2506 14.629 30.7306 16.047 30.6786C17.434 30.6206 17.952 29.7936 19.627 29.7936C21.285 29.7936 21.771 30.6786 23.217 30.6456C24.706 30.6206 25.643 29.3136 26.537 27.9756C27.2034 27.0315 27.7164 25.9879 28.057 24.8836C27.192 24.5179 26.4538 23.9057 25.9345 23.1232C25.4152 22.3407 25.1379 21.4227 25.137 20.4836ZM22.405 12.3936C23.2165 11.4196 23.6165 10.1677 23.52 8.90359C22.2799 9.03377 21.1345 9.62649 20.312 10.5636C19.9099 11.0211 19.602 11.5533 19.4057 12.1298C19.2094 12.7063 19.1286 13.3158 19.168 13.9236C19.7881 13.93 20.4016 13.7956 20.9623 13.5306C21.523 13.2656 22.0162 12.8768 22.405 12.3936Z" fill="white"/>
<path d="M42.67 27.3236H37.938L36.801 30.6796H34.796L39.28 18.2616H41.363L45.846 30.6796H43.807L42.67 27.3236ZM38.427 25.7736H42.179L40.329 20.3276H40.278L38.427 25.7736ZM55.527 26.1536C55.527 28.9666 54.022 30.7736 51.749 30.7736C51.1735 30.8036 50.6013 30.6711 50.0976 30.3911C49.594 30.1112 49.1793 29.6951 48.901 29.1906H48.858V33.6746H46.998V21.6256H48.798V23.1316H48.831C49.122 22.6292 49.5438 22.2152 50.0515 21.9334C50.5591 21.6517 51.1337 21.5128 51.714 21.5316C54.012 21.5316 55.527 23.3476 55.527 26.1536ZM53.617 26.1536C53.617 24.3206 52.67 23.1156 51.225 23.1156C49.805 23.1156 48.85 24.3456 48.85 26.1536C48.85 27.9776 49.805 29.1996 51.225 29.1996C52.67 29.1996 53.617 28.0026 53.617 26.1536ZM65.493 26.1536C65.493 28.9666 63.987 30.7736 61.714 30.7736C61.1385 30.8036 60.5663 30.6711 60.0626 30.3911C59.559 30.1112 59.1443 29.6951 58.866 29.1906H58.823V33.6746H56.964V21.6256H58.763V23.1316H58.797C59.088 22.6292 59.5098 22.2152 60.0175 21.9334C60.5251 21.6517 61.0997 21.5128 61.68 21.5316C63.978 21.5316 65.493 23.3476 65.493 26.1536ZM63.583 26.1536C63.583 24.3206 62.635 23.1156 61.19 23.1156C59.77 23.1156 58.815 24.3456 58.815 26.1536C58.815 27.9776 59.77 29.1996 61.19 29.1996C62.635 29.1996 63.583 28.0026 63.583 26.1536ZM72.078 27.2196C72.216 28.4516 73.412 29.2596 75.048 29.2596C76.614 29.2596 77.741 28.4516 77.741 27.3406C77.741 26.3766 77.061 25.8006 75.451 25.4046L73.842 25.0166C71.562 24.4666 70.503 23.3996 70.503 21.6686C70.503 19.5266 72.37 18.0546 75.022 18.0546C77.646 18.0546 79.445 19.5266 79.505 21.6686H77.629C77.517 20.4296 76.493 19.6816 74.995 19.6816C73.497 19.6816 72.474 20.4386 72.474 21.5396C72.474 22.4176 73.128 22.9346 74.729 23.3296L76.097 23.6656C78.645 24.2686 79.703 25.2916 79.703 27.1086C79.703 29.4316 77.853 30.8866 74.91 30.8866C72.156 30.8866 70.296 29.4666 70.176 27.2196H72.078ZM83.714 19.4836V21.6256H85.436V23.0976H83.714V28.0886C83.714 28.8646 84.059 29.2256 84.816 29.2256C85.0202 29.222 85.2242 29.2077 85.427 29.1826V30.6456C85.0868 30.7092 84.741 30.738 84.395 30.7316C82.562 30.7316 81.847 30.0426 81.847 28.2866V23.0976H80.531V21.6256H81.847V19.4836H83.714ZM86.433 26.1536C86.433 23.3046 88.111 21.5146 90.727 21.5146C93.352 21.5146 95.022 23.3046 95.022 26.1536C95.022 29.0096 93.361 30.7916 90.727 30.7916C88.094 30.7916 86.433 29.0096 86.433 26.1536ZM93.128 26.1536C93.128 24.1996 92.233 23.0456 90.727 23.0456C89.221 23.0456 88.327 24.2076 88.327 26.1536C88.327 28.1156 89.221 29.2596 90.727 29.2596C92.233 29.2596 93.128 28.1156 93.128 26.1536ZM96.554 21.6256H98.327V23.1666H98.37C98.4901 22.6856 98.772 22.2606 99.1684 21.9629C99.5648 21.6652 100.052 21.5129 100.547 21.5316C100.761 21.5307 100.975 21.5539 101.184 21.6006V23.3386C100.914 23.2561 100.632 23.2183 100.349 23.2266C100.079 23.2156 99.8098 23.2632 99.5599 23.3661C99.31 23.469 99.0854 23.6247 98.9014 23.8226C98.7174 24.0205 98.5783 24.2558 98.4939 24.5125C98.4094 24.7692 98.3814 25.0411 98.412 25.3096V30.6796H96.554V21.6256ZM109.752 28.0206C109.502 29.6636 107.902 30.7916 105.854 30.7916C103.22 30.7916 101.585 29.0276 101.585 26.1966C101.585 23.3566 103.229 21.5146 105.775 21.5146C108.281 21.5146 109.855 23.2346 109.855 25.9806V26.6176H103.461V26.7296C103.432 27.0628 103.473 27.3985 103.584 27.7143C103.694 28.0301 103.87 28.3188 104.1 28.5613C104.331 28.8039 104.61 28.9946 104.92 29.1208C105.23 29.2471 105.563 29.306 105.897 29.2936C106.336 29.3346 106.776 29.2329 107.153 29.0036C107.53 28.7742 107.822 28.4295 107.987 28.0206H109.752ZM103.47 25.3186H107.996C108.013 25.019 107.967 24.7192 107.863 24.4381C107.758 24.1569 107.597 23.9003 107.388 23.6845C107.18 23.4688 106.929 23.2984 106.651 23.1841C106.374 23.0699 106.076 23.0142 105.776 23.0206C105.473 23.0187 105.173 23.0769 104.893 23.1916C104.613 23.3063 104.358 23.4754 104.144 23.6891C103.93 23.9027 103.76 24.1567 103.644 24.4364C103.528 24.7161 103.469 25.0159 103.47 25.3186Z" fill="white"/>
<path d="M38.194 8.91459C38.5836 8.88663 38.9746 8.9455 39.3387 9.08694C39.7029 9.22837 40.0311 9.44886 40.2997 9.7325C40.5683 10.0161 40.7706 10.3558 40.8921 10.7271C41.0135 11.0984 41.051 11.492 41.002 11.8796C41.002 13.7856 39.972 14.8816 38.194 14.8816H36.039V8.91359L38.194 8.91459ZM36.966 14.0376H38.091C38.3693 14.0541 38.6478 14.0083 38.9062 13.9037C39.1647 13.799 39.3965 13.638 39.5849 13.4325C39.7733 13.2269 39.9135 12.982 39.9954 12.7154C40.0772 12.4489 40.0986 12.1674 40.058 11.8916C40.0957 11.6168 40.0722 11.3371 39.9891 11.0725C39.9061 10.8078 39.7655 10.5648 39.5775 10.3609C39.3895 10.157 39.1588 9.99711 38.9018 9.89281C38.6448 9.78851 38.3679 9.74233 38.091 9.75759H36.966V14.0376ZM42.049 12.6276C42.0209 12.3318 42.055 12.0335 42.149 11.7517C42.243 11.4699 42.3948 11.2108 42.5947 10.9911C42.7946 10.7714 43.0382 10.5958 43.3099 10.4757C43.5816 10.3556 43.8754 10.2935 44.1725 10.2935C44.4695 10.2935 44.7633 10.3556 45.035 10.4757C45.3067 10.5958 45.5503 10.7714 45.7502 10.9911C45.9501 11.2108 46.1019 11.4699 46.1959 11.7517C46.2899 12.0335 46.324 12.3318 46.296 12.6276C46.3255 12.9242 46.2926 13.2237 46.1993 13.5068C46.106 13.7899 45.9545 14.0503 45.7544 14.2713C45.5544 14.4922 45.3102 14.6689 45.0378 14.7897C44.7653 14.9106 44.4705 14.973 44.1725 14.973C43.8744 14.973 43.5796 14.9106 43.3071 14.7897C43.0347 14.6689 42.7906 14.4922 42.5905 14.2713C42.3904 14.0503 42.2389 13.7899 42.1456 13.5068C42.0524 13.2237 42.0194 12.9242 42.049 12.6276ZM45.382 12.6276C45.382 11.6516 44.943 11.0806 44.174 11.0806C43.401 11.0806 42.967 11.6516 42.967 12.6276C42.967 13.6116 43.401 14.1776 44.174 14.1776C44.944 14.1776 45.382 13.6076 45.382 12.6276ZM51.942 14.8816H51.019L50.089 11.5646H50.019L49.092 14.8816H48.179L46.937 10.3786H47.839L48.645 13.8146H48.712L49.638 10.3786H50.49L51.416 13.8146H51.486L52.289 10.3786H53.178L51.942 14.8816ZM54.222 10.3786H55.077V11.0936H55.143C55.2557 10.8367 55.4457 10.6213 55.6866 10.4776C55.9276 10.3338 56.2073 10.2688 56.487 10.2916C56.7061 10.2751 56.9261 10.3082 57.1307 10.3883C57.3354 10.4684 57.5193 10.5935 57.6691 10.7544C57.8188 10.9152 57.9304 11.1077 57.9956 11.3175C58.0609 11.5274 58.0781 11.7492 58.046 11.9666V14.8816H57.157V12.1896C57.157 11.4656 56.843 11.1056 56.185 11.1056C56.0362 11.0987 55.8878 11.124 55.7497 11.1799C55.6117 11.2357 55.4874 11.3207 55.3853 11.4291C55.2832 11.5375 55.2057 11.6666 55.1582 11.8077C55.1107 11.9488 55.0942 12.0985 55.11 12.2466V14.8816H54.222V10.3786ZM59.462 8.62059H60.35V14.8806H59.462V8.62059ZM61.586 12.6276C61.5579 12.3318 61.592 12.0335 61.686 11.7517C61.78 11.4699 61.9318 11.2108 62.1317 10.9911C62.3316 10.7714 62.5752 10.5958 62.8469 10.4757C63.1186 10.3556 63.4124 10.2935 63.7095 10.2935C64.0065 10.2935 64.3003 10.3556 64.572 10.4757C64.8437 10.5958 65.0873 10.7714 65.2872 10.9911C65.4871 11.2108 65.6389 11.4699 65.7329 11.7517C65.8269 12.0335 65.861 12.3318 65.833 12.6276C65.8625 12.9242 65.8296 13.2237 65.7363 13.5068C65.643 13.7899 65.4915 14.0503 65.2914 14.2713C65.0914 14.4922 64.8472 14.6689 64.5748 14.7897C64.3023 14.9106 64.0075 14.973 63.7095 14.973C63.4114 14.973 63.1166 14.9106 62.8442 14.7897C62.5717 14.6689 62.3276 14.4922 62.1275 14.2713C61.9274 14.0503 61.7759 13.7899 61.6826 13.5068C61.5894 13.2237 61.5564 12.9242 61.586 12.6276ZM64.919 12.6276C64.919 11.6516 64.48 11.0806 63.711 11.0806C62.938 11.0806 62.504 11.6516 62.504 12.6276C62.504 13.6116 62.938 14.1776 63.711 14.1776C64.481 14.1776 64.919 13.6076 64.919 12.6276ZM66.769 13.6076C66.769 12.7976 67.372 12.3296 68.444 12.2636L69.664 12.1936V11.8046C69.664 11.3296 69.349 11.0606 68.742 11.0606C68.245 11.0606 67.902 11.2426 67.803 11.5606H66.943C67.033 10.7876 67.761 10.2906 68.783 10.2906C69.911 10.2906 70.548 10.8536 70.548 11.8046V14.8816H69.693V14.2486H69.623C69.4802 14.4757 69.2797 14.6607 69.042 14.785C68.8043 14.9092 68.5379 14.9681 68.27 14.9556C68.0809 14.9753 67.8898 14.9552 67.709 14.8964C67.5282 14.8377 67.3617 14.7418 67.2202 14.6148C67.0788 14.4878 66.9656 14.3325 66.8878 14.159C66.8101 13.9855 66.7696 13.7977 66.769 13.6076ZM69.663 13.2236V12.8466L68.563 12.9166C67.943 12.9586 67.663 13.1696 67.663 13.5666C67.663 13.9716 68.014 14.2066 68.497 14.2066C68.6385 14.2209 68.7814 14.2066 68.9173 14.1645C69.0532 14.1225 69.1793 14.0536 69.288 13.9619C69.3968 13.8702 69.486 13.7576 69.5504 13.6308C69.6148 13.504 69.6531 13.3655 69.663 13.2236ZM71.716 12.6276C71.716 11.2046 72.448 10.3036 73.586 10.3036C73.8672 10.2908 74.1463 10.3583 74.3907 10.4982C74.6351 10.638 74.8346 10.8446 74.966 11.0936H75.033V8.62059H75.921V14.8806H75.07V14.1706H75C74.8582 14.4181 74.6514 14.6221 74.402 14.7605C74.1525 14.8988 73.87 14.9663 73.585 14.9556C72.44 14.9556 71.716 14.0546 71.716 12.6276ZM72.634 12.6276C72.634 13.5826 73.084 14.1576 73.837 14.1576C74.587 14.1576 75.049 13.5746 75.049 12.6316C75.049 11.6936 74.581 11.1016 73.837 11.1016C73.089 11.1016 72.634 11.6816 72.634 12.6276ZM79.598 12.6276C79.57 12.3318 79.604 12.0335 79.698 11.7517C79.792 11.4699 79.9438 11.2108 80.1437 10.9911C80.3436 10.7714 80.5872 10.5958 80.8589 10.4757C81.1306 10.3556 81.4244 10.2935 81.7215 10.2935C82.0185 10.2935 82.3123 10.3556 82.584 10.4757C82.8557 10.5958 83.0993 10.7714 83.2992 10.9911C83.4991 11.2108 83.6509 11.4699 83.7449 11.7517C83.8389 12.0335 83.873 12.3318 83.845 12.6276C83.8745 12.9242 83.8416 13.2237 83.7483 13.5068C83.655 13.7899 83.5035 14.0503 83.3034 14.2713C83.1034 14.4922 82.8592 14.6689 82.5868 14.7897C82.3143 14.9106 82.0195 14.973 81.7215 14.973C81.4234 14.973 81.1286 14.9106 80.8562 14.7897C80.5837 14.6689 80.3396 14.4922 80.1395 14.2713C79.9394 14.0503 79.7879 13.7899 79.6946 13.5068C79.6014 13.2237 79.5684 12.9242 79.598 12.6276ZM82.931 12.6276C82.931 11.6516 82.493 11.0806 81.723 11.0806C80.951 11.0806 80.516 11.6516 80.516 12.6276C80.516 13.6116 80.951 14.1776 81.723 14.1776C82.493 14.1776 82.931 13.6076 82.931 12.6276ZM85.037 10.3776H85.893V11.0936H85.959C86.0717 10.8367 86.2617 10.6213 86.5026 10.4776C86.7436 10.3338 87.0233 10.2688 87.303 10.2916C87.5221 10.2751 87.7421 10.3082 87.9467 10.3883C88.1514 10.4684 88.3354 10.5935 88.4851 10.7544C88.6348 10.9152 88.7464 11.1077 88.8116 11.3175C88.8769 11.5274 88.8941 11.7492 88.862 11.9666V14.8816H87.973V12.1896C87.973 11.4656 87.659 11.1056 87.001 11.1056C86.8522 11.0987 86.7038 11.124 86.5657 11.1799C86.4277 11.2357 86.3034 11.3207 86.2013 11.4291C86.0992 11.5375 86.0218 11.6666 85.9742 11.8077C85.9267 11.9488 85.9102 12.0985 85.926 12.2466V14.8816H85.037V10.3776ZM93.883 9.25759V10.3986H94.859V11.1476H93.883V13.4626C93.883 13.9346 94.077 14.1416 94.52 14.1416C94.6333 14.1411 94.7464 14.1341 94.859 14.1206V14.8606C94.6992 14.8894 94.5373 14.9048 94.375 14.9066C93.387 14.9066 92.994 14.5586 92.994 13.6906V11.1476H92.279V10.3986H92.994V9.25759H93.883ZM96.073 8.62059H96.953V11.1016H97.023C97.1413 10.8423 97.3367 10.6257 97.5826 10.4815C97.8285 10.3372 98.1128 10.2723 98.397 10.2956C98.6149 10.2838 98.8328 10.3202 99.035 10.4023C99.2372 10.4844 99.4189 10.6101 99.5669 10.7705C99.715 10.9308 99.8258 11.1219 99.8915 11.3301C99.9572 11.5382 99.9761 11.7583 99.947 11.9746V14.8816H99.058V12.1936C99.058 11.4736 98.7229 11.1096 98.095 11.1096C97.9422 11.097 97.7885 11.118 97.6446 11.1711C97.5008 11.2242 97.3703 11.308 97.2623 11.4168C97.1543 11.5256 97.0713 11.6567 97.0193 11.8009C96.9672 11.9451 96.9473 12.0989 96.961 12.2516V14.8816H96.073V8.62059ZM105.129 13.6656C105.008 14.077 104.747 14.4328 104.39 14.671C104.034 14.9092 103.605 15.0145 103.179 14.9686C102.882 14.9766 102.587 14.9199 102.314 14.8024C102.042 14.6849 101.798 14.5095 101.6 14.2882C101.402 14.0669 101.254 13.8052 101.168 13.5212C101.081 13.2372 101.057 12.9377 101.098 12.6436C101.059 12.3488 101.083 12.0489 101.169 11.7643C101.256 11.4797 101.403 11.2171 101.599 10.9941C101.796 10.7711 102.039 10.5929 102.31 10.4717C102.582 10.3505 102.877 10.2891 103.174 10.2916C104.427 10.2916 105.183 11.1476 105.183 12.5616V12.8716H102.003V12.9216C101.989 13.0869 102.01 13.2533 102.064 13.4101C102.118 13.567 102.204 13.7107 102.317 13.8322C102.43 13.9537 102.568 14.0502 102.72 14.1155C102.873 14.1808 103.037 14.2136 103.203 14.2116C103.415 14.2367 103.63 14.1983 103.821 14.1011C104.011 14.0039 104.169 13.8523 104.273 13.6656H105.129ZM102.003 12.2146H104.278C104.289 12.0634 104.269 11.9114 104.218 11.7686C104.167 11.6257 104.087 11.4951 103.982 11.3852C103.878 11.2752 103.751 11.1884 103.611 11.1303C103.471 11.0721 103.321 11.044 103.169 11.0476C103.015 11.0457 102.863 11.0746 102.72 11.1326C102.578 11.1906 102.449 11.2765 102.34 11.3853C102.231 11.494 102.145 11.6234 102.088 11.7659C102.03 11.9083 102.001 12.0609 102.003 12.2146Z" fill="white"/>
</g>
<defs>
<clipPath id="clip0_0_9734">
<rect width="120" height="40" fill="white" transform="translate(0.199951 0.183594)"/>
</clipPath>
</defs>
</svg>
