<svg width="24" height="25" viewBox="0 0 24 25" fill="none" xmlns="http://www.w3.org/2000/svg">
<g clip-path="url(#clip0_0_9756)">
<path d="M21.6841 18.8869C21.3212 19.7254 20.8916 20.4972 20.3938 21.2068C19.7153 22.1742 19.1598 22.8438 18.7316 23.2156C18.068 23.826 17.3569 24.1386 16.5954 24.1564C16.0488 24.1564 15.3895 24.0008 14.6221 23.6853C13.8522 23.3712 13.1447 23.2156 12.4978 23.2156C11.8193 23.2156 11.0916 23.3712 10.3132 23.6853C9.53371 24.0008 8.90573 24.1652 8.4256 24.1815C7.6954 24.2126 6.96757 23.8912 6.24108 23.2156C5.77739 22.8112 5.19741 22.1179 4.50262 21.1357C3.75716 20.0868 3.14429 18.8706 2.66416 17.484C2.14995 15.9862 1.89218 14.5359 1.89218 13.1318C1.89218 11.5234 2.23973 10.1362 2.93585 8.9737C3.48294 8.03995 4.21077 7.30338 5.12171 6.76266C6.03264 6.22193 7.01691 5.94639 8.07687 5.92876C8.65685 5.92876 9.41742 6.10816 10.3626 6.46074C11.3051 6.81451 11.9102 6.99391 12.1756 6.99391C12.3739 6.99391 13.0462 6.78414 14.1859 6.36593C15.2636 5.97809 16.1732 5.8175 16.9184 5.88076C18.9376 6.04372 20.4545 6.83969 21.4634 8.27372C19.6575 9.36791 18.7642 10.9005 18.782 12.8665C18.7983 14.3978 19.3538 15.6722 20.4457 16.684C20.9405 17.1536 21.493 17.5166 22.1078 17.7743C21.9745 18.161 21.8338 18.5313 21.6841 18.8869ZM17.0532 0.66373C17.0532 1.864 16.6147 2.9847 15.7406 4.022C14.6858 5.25515 13.41 5.96772 12.0265 5.85528C12.0089 5.71128 11.9987 5.55973 11.9987 5.40048C11.9987 4.24821 12.5003 3.01507 13.3911 2.0068C13.8358 1.4963 14.4014 1.07182 15.0873 0.733209C15.7717 0.399649 16.4191 0.215183 17.028 0.183594C17.0458 0.344052 17.0532 0.50452 17.0532 0.663715V0.66373Z" fill="#272D37"/>
</g>
<defs>
<clipPath id="clip0_0_9756">
<rect width="24" height="24" fill="white" transform="translate(0 0.183594)"/>
</clipPath>
</defs>
</svg>
