<svg width="24" height="25" viewBox="0 0 24 25" fill="none" xmlns="http://www.w3.org/2000/svg">
<g clip-path="url(#clip0_0_9754)">
<path d="M24 12.1836C24 5.55617 18.6274 0.183594 12 0.183594C5.37258 0.183594 0 5.55617 0 12.1836C0 18.173 4.3882 23.1376 10.125 24.0378V15.6523H7.07812V12.1836H10.125V9.53984C10.125 6.53234 11.9166 4.87109 14.6576 4.87109C15.9701 4.87109 17.3438 5.10547 17.3438 5.10547V8.05859H15.8306C14.34 8.05859 13.875 8.98367 13.875 9.93359V12.1836H17.2031L16.6711 15.6523H13.875V24.0378C19.6118 23.1376 24 18.173 24 12.1836Z" fill="#272D37"/>
<path d="M16.6711 15.6523L17.2031 12.1836H13.875V9.93359C13.875 8.98461 14.34 8.05859 15.8306 8.05859H17.3438V5.10547C17.3438 5.10547 15.9705 4.87109 14.6576 4.87109C11.9166 4.87109 10.125 6.53234 10.125 9.53984V12.1836H7.07812V15.6523H10.125V24.0378C11.3674 24.2322 12.6326 24.2322 13.875 24.0378V15.6523H16.6711Z" fill="white"/>
</g>
<defs>
<clipPath id="clip0_0_9754">
<rect width="24" height="24" fill="white" transform="translate(0 0.183594)"/>
</clipPath>
</defs>
</svg>
