<svg width="24" height="25" viewBox="0 0 24 25" fill="none" xmlns="http://www.w3.org/2000/svg">
<g clip-path="url(#clip0_0_9755)">
<path d="M23.7628 12.4595C23.7628 11.6438 23.6967 10.8237 23.5556 10.0212H12.2368V14.6421H18.7185C18.4495 16.1325 17.5853 17.4509 16.3198 18.2887V21.287H20.1868C22.4576 19.197 23.7628 16.1105 23.7628 12.4595Z" fill="#272D37"/>
<path d="M12.2373 24.1838C15.4737 24.1838 18.2031 23.1211 20.1917 21.2868L16.3247 18.2885C15.2488 19.0204 13.8599 19.4349 12.2417 19.4349C9.11105 19.4349 6.45663 17.3228 5.50421 14.4832H1.51376V17.5742C3.55088 21.6263 7.70006 24.1838 12.2373 24.1838Z" fill="#272D37"/>
<path d="M5.49974 14.4837C4.99707 12.9933 4.99707 11.3795 5.49974 9.88918V6.79823H1.5137C-0.188303 10.189 -0.188303 14.1839 1.5137 17.5746L5.49974 14.4837Z" fill="#272D37"/>
<path d="M12.2373 4.93309C13.9481 4.90663 15.6016 5.55039 16.8407 6.7321L20.2667 3.30604C18.0973 1.26893 15.218 0.148962 12.2373 0.184236C7.7001 0.184236 3.55092 2.74165 1.51381 6.79824L5.49985 9.88918C6.44785 7.04516 9.10668 4.93309 12.2373 4.93309Z" fill="#272D37"/>
</g>
<defs>
<clipPath id="clip0_0_9755">
<rect width="24" height="24" fill="white" transform="translate(0 0.183594)"/>
</clipPath>
</defs>
</svg>
