<svg width="240" height="240" viewBox="0 0 240 240" fill="none" xmlns="http://www.w3.org/2000/svg">
<rect width="240" height="240" rx="110" fill="#E4E2FF" fill-opacity="0.2"/>
<rect x="20" y="20" width="200" height="200" rx="100" fill="#E4E2FF"/>
<path d="M163.202 88.9758C162.603 88.3719 161.89 87.8926 161.105 87.5655C160.32 87.2384 159.478 87.0699 158.627 87.0699C157.777 87.0699 156.934 87.2384 156.149 87.5655C155.364 87.8926 154.651 88.3719 154.052 88.9758L106.05 137.042L85.8832 116.811C85.2612 116.21 84.5271 115.737 83.7226 115.42C82.9182 115.103 82.0591 114.948 81.1946 114.963C80.33 114.978 79.4769 115.163 78.6838 115.508C77.8908 115.852 77.1735 116.35 76.5727 116.972C75.9719 117.594 75.4996 118.328 75.1825 119.132C74.8655 119.937 74.71 120.796 74.725 121.66C74.7399 122.525 74.925 123.378 75.2697 124.171C75.6144 124.964 76.1119 125.681 76.7338 126.282L101.476 151.024C102.075 151.628 102.787 152.107 103.573 152.434C104.358 152.762 105.2 152.93 106.05 152.93C106.901 152.93 107.743 152.762 108.528 152.434C109.314 152.107 110.026 151.628 110.625 151.024L163.202 98.4474C163.856 97.844 164.378 97.1117 164.735 96.2967C165.092 95.4816 165.276 94.6014 165.276 93.7116C165.276 92.8218 165.092 91.9416 164.735 91.1265C164.378 90.3115 163.856 89.5792 163.202 88.9758Z" fill="#574EFA"/>
</svg>
