<svg width="24" height="25" viewBox="0 0 24 25" fill="none" xmlns="http://www.w3.org/2000/svg">
<g clip-path="url(#clip0_0_9757)">
<path d="M16.8503 0.183594H7.14973C3.20735 0.183594 0 3.39095 0 7.33332V17.0339C0 20.9762 3.20735 24.1836 7.14973 24.1836H16.8503C20.7926 24.1836 24 20.9762 24 17.0339V7.33332C24 3.39095 20.7926 0.183594 16.8503 0.183594ZM21.5856 17.0339C21.5856 19.6491 19.4655 21.7692 16.8503 21.7692H7.14973C4.5345 21.7692 2.4144 19.6491 2.4144 17.0339V7.33332C2.4144 4.71805 4.5345 2.59799 7.14973 2.59799H16.8503C19.4655 2.59799 21.5856 4.71805 21.5856 7.33332V17.0339Z" fill="#272D37"/>
<path d="M12 5.97632C8.57729 5.97632 5.79272 8.76089 5.79272 12.1835C5.79272 15.6062 8.57729 18.3908 12 18.3908C15.4227 18.3908 18.2072 15.6062 18.2072 12.1835C18.2072 8.76084 15.4227 5.97632 12 5.97632ZM12 15.9764C9.90523 15.9764 8.20712 14.2783 8.20712 12.1836C8.20712 10.0888 9.90527 8.39072 12 8.39072C14.0947 8.39072 15.7928 10.0888 15.7928 12.1836C15.7928 14.2783 14.0947 15.9764 12 15.9764Z" fill="#272D37"/>
<path d="M18.219 7.51039C19.0405 7.51039 19.7064 6.84448 19.7064 6.02305C19.7064 5.20161 19.0405 4.53571 18.219 4.53571C17.3976 4.53571 16.7317 5.20161 16.7317 6.02305C16.7317 6.84448 17.3976 7.51039 18.219 7.51039Z" fill="#272D37"/>
</g>
<defs>
<clipPath id="clip0_0_9757">
<rect width="24" height="24" fill="white" transform="translate(0 0.183594)"/>
</clipPath>
</defs>
</svg>
