<svg width="28" height="18" viewBox="0 0 28 18" fill="none" xmlns="http://www.w3.org/2000/svg">
<path d="M27.9996 9.18357C27.9996 13.7928 24.2519 17.5836 19.5996 17.5836C14.9904 17.5836 11.1996 13.7928 11.1996 9.18357C11.1996 4.57434 14.9473 0.783569 19.5565 0.783569C24.2519 0.783569 27.9996 4.57434 27.9996 9.18357Z" fill="#F9B50B"/>
<path d="M16.7569 9.22665C16.7569 8.62357 16.6708 8.02049 16.5846 7.46049H11.4154C11.4585 7.15895 11.5446 6.90049 11.6308 6.55588H16.24C16.1538 6.25434 16.0246 5.9528 15.8954 5.65126H11.9754C12.1046 5.34972 12.2769 5.09126 12.4492 4.74665H15.4215C15.2492 4.44511 15.0338 4.14357 14.7754 3.84203H13.1385C13.3969 3.54049 13.6554 3.28203 14 2.98049C12.5354 1.60203 10.5538 0.783569 8.35692 0.783569C3.79077 0.9128 0 4.57434 0 9.18357C0 13.7928 3.74769 17.5836 8.4 17.5836C10.5969 17.5836 12.5354 16.722 14.0431 15.3866C14.3446 15.1282 14.6031 14.8266 14.9046 14.482H13.1815C12.9662 14.2236 12.7508 13.922 12.5785 13.6205H15.5077C15.68 13.362 15.8523 13.0605 15.9815 12.7159H12.0615C11.9323 12.4574 11.8031 12.1559 11.7169 11.8113H16.3262C16.5846 11.0359 16.7569 10.1743 16.7569 9.22665Z" fill="#C8191C"/>
<path d="M11.3728 11.3374L11.502 10.562C11.4589 10.562 11.3728 10.6051 11.2866 10.6051C10.9851 10.6051 10.942 10.4327 10.9851 10.3466L11.2435 8.79582H11.7174L11.8466 7.93428H11.4158L11.502 7.41736H10.5974C10.5974 7.41736 10.0804 10.3466 10.0804 10.6912C10.0804 11.2081 10.382 11.4666 10.8128 11.4666C11.0712 11.4666 11.2866 11.3804 11.3728 11.3374Z" fill="white"/>
<path d="M11.6742 9.91585C11.6742 11.1651 12.5357 11.4666 13.225 11.4666C13.8711 11.4666 14.1727 11.3374 14.1727 11.3374L14.345 10.4758C14.345 10.4758 13.8711 10.6912 13.3973 10.6912C12.4065 10.6912 12.5788 9.95893 12.5788 9.95893H14.388C14.388 9.95893 14.5173 9.39893 14.5173 9.14046C14.5173 8.58046 14.2157 7.84816 13.225 7.84816C12.3634 7.80508 11.6742 8.79585 11.6742 9.91585ZM13.225 8.62354C13.6988 8.62354 13.6127 9.18354 13.6127 9.22662H12.6219C12.665 9.18354 12.7511 8.62354 13.225 8.62354Z" fill="white"/>
<path d="M18.8675 11.3375L19.0398 10.3467C19.0398 10.3467 18.609 10.5621 18.2644 10.5621C17.6613 10.5621 17.3598 10.0882 17.3598 9.52823C17.3598 8.45131 17.8767 7.89131 18.5229 7.89131C18.9536 7.89131 19.3413 8.14977 19.3413 8.14977L19.4706 7.20208C19.4706 7.20208 18.9536 6.98669 18.4367 6.98669C17.4029 6.98669 16.4121 7.89131 16.4121 9.57131C16.4121 10.6913 16.929 11.4236 18.006 11.4236C18.3936 11.4667 18.8675 11.3375 18.8675 11.3375Z" fill="white"/>
<path d="M6.50459 7.80518C5.90151 7.80518 5.42766 7.97748 5.42766 7.97748L5.29843 8.75287C5.29843 8.75287 5.68612 8.58056 6.2892 8.58056C6.59074 8.58056 6.8492 8.62364 6.8492 8.8821C6.8492 9.05441 6.80612 9.09748 6.80612 9.09748H6.41843C5.64305 9.09748 4.82458 9.39902 4.82458 10.4329C4.82458 11.2513 5.34151 11.4236 5.68612 11.4236C6.2892 11.4236 6.59074 11.0359 6.63382 11.0359L6.59074 11.3806H7.32305L7.66766 8.92518C7.66766 7.84825 6.80612 7.80518 6.50459 7.80518ZM6.67689 9.78671C6.67689 9.91595 6.59074 10.6483 6.07382 10.6483C5.81535 10.6483 5.7292 10.4329 5.7292 10.3036C5.7292 10.0883 5.85843 9.78671 6.54766 9.78671C6.63382 9.78671 6.67689 9.78671 6.67689 9.78671Z" fill="white"/>
<path d="M8.53005 11.4235C8.74543 11.4235 9.86543 11.4666 9.86543 10.2604C9.86543 9.14042 8.78851 9.35581 8.78851 8.92504C8.78851 8.70965 8.96082 8.6235 9.26236 8.6235C9.39159 8.6235 9.86543 8.66658 9.86543 8.66658L9.99466 7.84812C9.99466 7.84812 9.69313 7.76196 9.13313 7.76196C8.48697 7.76196 7.79774 8.02042 7.79774 8.92504C7.79774 9.95889 8.91774 9.87273 8.91774 10.2604C8.91774 10.5189 8.6162 10.562 8.40082 10.562C8.01313 10.562 7.58236 10.4327 7.58236 10.4327L7.45312 11.2512C7.53928 11.3373 7.79774 11.4235 8.53005 11.4235Z" fill="white"/>
<path d="M26.2767 7.11584L26.1044 8.322C26.1044 8.322 25.7598 7.89123 25.2429 7.89123C24.4244 7.89123 23.7352 8.882 23.7352 10.0451C23.7352 10.7774 24.0798 11.5097 24.8552 11.5097C25.3721 11.5097 25.7167 11.1651 25.7167 11.1651L25.6736 11.4666H26.5782L27.2244 7.202L26.2767 7.11584ZM25.8459 9.442C25.8459 9.91585 25.6306 10.562 25.1136 10.562C24.8121 10.562 24.6398 10.3035 24.6398 9.82969C24.6398 9.09738 24.9413 8.66661 25.3721 8.66661C25.6736 8.70969 25.8459 8.92508 25.8459 9.442Z" fill="white"/>
<path d="M1.6373 11.3805L2.15422 8.19277L2.24037 11.3805H2.84345L4.00653 8.19277L3.53268 11.3805H4.48037L5.21268 7.11584H3.74806L2.84345 9.74354L2.80037 7.11584H1.50806L0.775757 11.3805H1.6373Z" fill="white"/>
<path d="M15.4212 11.3805C15.6797 9.91585 15.7228 8.7097 16.3689 8.92508C16.4551 8.36508 16.5843 8.10662 16.6705 7.89124H16.4982C16.1105 7.89124 15.7659 8.40816 15.7659 8.40816L15.852 7.93431H14.9905L14.4305 11.3805H15.4212V11.3805Z" fill="white"/>
<path d="M20.9351 7.80518C20.332 7.80518 19.8581 7.97748 19.8581 7.97748L19.7289 8.75287C19.7289 8.75287 20.1166 8.58056 20.7197 8.58056C21.0212 8.58056 21.2797 8.62364 21.2797 8.8821C21.2797 9.05441 21.2366 9.09748 21.2366 9.09748H20.8489C20.0735 9.09748 19.2551 9.39902 19.2551 10.4329C19.2551 11.2513 19.772 11.4236 20.1166 11.4236C20.7197 11.4236 21.0212 11.0359 21.0643 11.0359L21.0212 11.3806H21.8397L22.1843 8.92518C22.1843 7.84825 21.2366 7.80518 20.9351 7.80518ZM21.1504 9.78671C21.1504 9.91595 21.0643 10.6483 20.5474 10.6483C20.2889 10.6483 20.2028 10.4329 20.2028 10.3036C20.2028 10.0883 20.332 9.78671 21.0212 9.78671C21.1074 9.78671 21.1074 9.78671 21.1504 9.78671Z" fill="white"/>
<path d="M22.8744 11.3805C23.1328 9.91585 23.1759 8.7097 23.8221 8.92508C23.9082 8.36508 24.0375 8.10662 24.1236 7.89124H23.9513C23.5636 7.89124 23.219 8.40816 23.219 8.40816L23.3051 7.93431H22.4436L21.8836 11.3805H22.8744V11.3805Z" fill="white"/>
</svg>
