<svg width="136" height="41" viewBox="0 0 136 41" fill="none" xmlns="http://www.w3.org/2000/svg">
<g clip-path="url(#clip0_0_9742)">
<path d="M130.2 39.98H5.19945C2.44995 39.98 0.199951 37.7543 0.199951 35.0336V5.33719C0.199951 2.61559 2.44995 0.387192 5.19945 0.387192H130.2C132.946 0.387192 135.2 2.61559 135.2 5.33719V35.0336C135.2 37.7543 132.95 39.98 130.2 39.98Z" fill="black"/>
<path d="M130.2 1.17829C132.513 1.17829 134.398 3.04489 134.398 5.33629V35.0336C134.398 37.3223 132.514 39.1889 130.2 39.1889H5.19945C2.88195 39.1889 1.00095 37.3259 1.00095 35.0336V5.33719C1.00095 3.04489 2.88555 1.17829 5.19945 1.17829H130.2ZM130.2 0.386292H5.19945C2.44995 0.387192 0.199951 2.61559 0.199951 5.33719V35.0336C0.199951 37.7543 2.44995 39.9836 5.19945 39.9836H130.2C132.946 39.9836 135.2 37.7543 135.2 35.0336V5.33719C135.2 2.61559 132.95 0.387192 130.2 0.387192V0.386292Z" fill="#A6A6A6"/>
<path d="M44.6689 13.4696C43.7869 13.4696 43.0273 13.1636 42.4054 12.5543C41.7862 11.9423 41.473 11.18 41.473 10.2836C41.473 9.3872 41.7862 8.624 42.4054 8.0192C43.0237 7.4117 43.7869 7.1012 44.6689 7.1012C45.0946 7.1012 45.5194 7.1867 45.9316 7.3586C46.3357 7.5305 46.6588 7.7591 46.8982 8.0444L46.9432 8.1002L46.3105 8.7329L46.2547 8.6663C45.8641 8.2163 45.3475 7.9949 44.6689 7.9949C44.3758 7.99161 44.0848 8.04611 43.8127 8.15529C43.5406 8.26447 43.2927 8.42618 43.0831 8.6312C42.6403 9.0533 42.4189 9.6086 42.4189 10.2836C42.4189 10.9622 42.6403 11.5211 43.0831 11.9432C43.5331 12.3653 44.0677 12.5759 44.6689 12.5759C45.316 12.5759 45.8569 12.3617 46.2862 11.9396C46.5499 11.6759 46.7047 11.3276 46.7569 10.8704H44.5879V9.9956H47.6362L47.6506 10.0586C47.6821 10.2026 47.6992 10.3502 47.6992 10.5266C47.6992 11.3663 47.4391 12.0557 46.9333 12.5651C46.3492 13.1627 45.5905 13.4687 44.6689 13.4687V13.4696ZM52.3054 13.3319H48.6451V7.2389H52.3054V8.1281H49.5766V9.8471H52.0381V10.7228H49.5766V12.4418H52.3054V13.3319ZM55.5571 13.3319H54.6256V8.1281H52.9516V7.2389H57.2338V8.1281H55.5571V13.3319ZM60.985 13.3319H60.0571V7.2389H60.985V13.3319ZM64.405 13.3319H63.4816V8.1281H61.8004V7.2389H66.0862V8.1281H64.4059L64.405 13.3319ZM71.6131 13.4687C70.7167 13.4687 69.9571 13.1591 69.3523 12.5444C68.7511 11.9324 68.4451 11.1728 68.4451 10.2872C68.4451 9.398 68.7511 8.6348 69.3523 8.0264C69.9571 7.4144 70.7167 7.1021 71.6131 7.1021C72.5023 7.1021 73.2583 7.4144 73.8631 8.0336C74.4679 8.6456 74.773 9.4043 74.773 10.2872C74.773 11.1728 74.467 11.936 73.8667 12.548C73.2619 13.16 72.5023 13.4687 71.6131 13.4687ZM70.0345 11.936C70.4701 12.368 70.9831 12.5795 71.6131 12.5795C71.9046 12.585 72.194 12.5308 72.4637 12.4201C72.7333 12.3095 72.9774 12.1447 73.1809 11.936C73.6093 11.5067 73.828 10.9514 73.828 10.2836C73.828 9.6194 73.6093 9.0641 73.18 8.6348C72.7588 8.2055 72.2314 7.9913 71.6131 7.9913C70.9867 7.9913 70.4701 8.2019 70.0345 8.6348C69.6088 9.0641 69.391 9.6194 69.391 10.2836C69.391 10.9514 69.6088 11.5076 70.0345 11.936ZM80.479 13.331H79.5511L79.5268 13.2932L76.5946 8.642L76.6225 9.5528V13.3319H75.6946V7.2389H76.7566L79.5754 11.7002L79.5484 10.7966V7.2389H80.479V13.331ZM68.3326 21.9206C65.9881 21.9206 64.0684 23.6891 64.0684 26.1281C64.0684 28.5509 65.9881 30.3401 68.3326 30.3401C70.6879 30.3401 72.6076 28.5509 72.6076 26.1281C72.6076 23.6891 70.6879 21.9206 68.3326 21.9206ZM68.3326 28.6805C67.0456 28.6805 65.9386 27.6266 65.9386 26.1281C65.9386 24.6134 67.0456 23.5766 68.3326 23.5766C69.6232 23.5766 70.7374 24.6134 70.7374 26.1281C70.7374 27.6266 69.6232 28.6805 68.3326 28.6805ZM59.0239 21.9206C56.6686 21.9206 54.7561 23.6891 54.7561 26.1281C54.7561 28.5509 56.6686 30.3401 59.0239 30.3401C61.3765 30.3401 63.2926 28.5509 63.2926 26.1281C63.2926 23.6891 61.3756 21.9206 59.0239 21.9206ZM59.0239 28.6805C57.7342 28.6805 56.6227 27.6266 56.6227 26.1281C56.6227 24.6134 57.7342 23.5766 59.0239 23.5766C60.3109 23.5766 61.4215 24.6134 61.4215 26.1281C61.4215 27.6266 60.3109 28.6805 59.0239 28.6805ZM47.9431 23.2103V25.0004H52.2604C52.1344 25.9985 51.796 26.7329 51.2794 27.2468C50.6494 27.8651 49.6684 28.5509 47.9431 28.5509C45.2881 28.5509 43.2073 26.4305 43.2073 23.8016C43.2073 21.1718 45.289 19.0478 47.9431 19.0478C49.3813 19.0478 50.4253 19.6031 51.1948 20.324L52.471 19.0622C51.391 18.0425 49.9573 17.2622 47.9431 17.2622C44.3008 17.2622 41.2426 20.1944 41.2426 23.8016C41.2426 27.4043 44.3044 30.3401 47.9431 30.3401C49.9114 30.3401 51.3919 29.7011 52.5556 28.5014C53.7472 27.3242 54.1162 25.6646 54.1162 24.3281C54.1162 23.9105 54.0811 23.5307 54.0217 23.2103H47.9431ZM93.2527 24.5963C92.9008 23.6531 91.8181 21.9206 89.6104 21.9206C87.4198 21.9206 85.5991 23.6252 85.5991 26.1281C85.5991 28.4879 87.4027 30.3401 89.8174 30.3401C91.7722 30.3401 92.9008 29.1593 93.3616 28.4735L91.9126 27.5168C91.4275 28.217 90.7696 28.6805 89.8174 28.6805C88.8724 28.6805 88.1938 28.2521 87.7573 27.4043L93.4453 25.0733C93.4489 25.0733 93.2527 24.5963 93.2527 24.5963ZM87.4513 25.9985C87.4027 24.374 88.7239 23.5442 89.6743 23.5442C90.415 23.5442 91.0441 23.9105 91.2556 24.4379L87.4513 25.9985ZM82.8289 30.0836H84.6991V17.7086H82.8289V30.0836ZM79.7662 22.8557H79.7032C79.2847 22.367 78.4828 21.9197 77.4676 21.9197C75.3364 21.9197 73.3888 23.7692 73.3888 26.1425C73.3888 28.505 75.3364 30.3401 77.4676 30.3401C78.4828 30.3401 79.2856 29.8901 79.7032 29.3843H79.7662V29.9855C79.7662 31.5956 78.8977 32.4605 77.4955 32.4605C76.3525 32.4605 75.646 31.6442 75.3508 30.9593L73.7263 31.6307C74.1943 32.7449 75.4354 34.1192 77.4955 34.1192C79.6888 34.1192 81.5383 32.843 81.5383 29.7362V22.1762H79.7662V22.8557ZM77.6251 28.6805C76.3381 28.6805 75.259 27.6122 75.259 26.1425C75.259 24.6593 76.339 23.5766 77.626 23.5766C78.8977 23.5766 79.8967 24.6593 79.8967 26.1425C79.8967 27.6122 78.8977 28.6805 77.6251 28.6805ZM102.006 17.7086H97.534V30.0836H99.4015V25.3946H102.006C104.081 25.3946 106.109 23.9096 106.109 21.5516C106.109 19.1918 104.073 17.7086 102.006 17.7086ZM102.056 23.6747H99.4006V19.4312H102.056C103.448 19.4312 104.243 20.5742 104.243 21.5516C104.243 22.5074 103.448 23.6747 102.056 23.6747ZM113.583 21.8954C112.236 21.8954 110.838 22.4867 110.262 23.7908L111.913 24.4766C112.272 23.7908 112.926 23.5658 113.619 23.5658C114.585 23.5658 115.566 24.1418 115.581 25.1588V25.2884C115.242 25.0949 114.522 24.8105 113.632 24.8105C111.85 24.8105 110.036 25.7807 110.036 27.5942C110.036 29.2538 111.495 30.3194 113.136 30.3194C114.392 30.3194 115.084 29.7569 115.521 29.1062H115.584V30.0629H117.384V25.3163C117.384 23.123 115.728 21.8954 113.583 21.8954ZM113.358 28.6769C112.746 28.6769 111.9 28.3754 111.9 27.6266C111.9 26.6699 112.957 26.3036 113.875 26.3036C114.698 26.3036 115.081 26.4836 115.58 26.7194C115.436 27.8651 114.437 28.6769 113.358 28.6769ZM123.947 22.1663L121.803 27.5312H121.74L119.521 22.1672H117.51L120.84 29.6615L118.941 33.8348H120.889L126.018 22.1663H123.948H123.947ZM107.134 30.0836H109.005V17.7086H107.134V30.0836Z" fill="white"/>
<path d="M10.6346 7.84729C10.343 8.15329 10.1702 8.62399 10.1702 9.23959V31.1312C10.1702 31.7468 10.3394 32.2175 10.6346 32.5235L10.7084 32.5901L23.1013 20.3276V20.0396L10.7075 7.77709L10.6346 7.84729Z" fill="url(#paint0_linear_0_9742)"/>
<path d="M27.2278 24.4199L23.1004 20.3276V20.0396L27.2314 15.9509L27.3232 16.0031L32.2165 18.7598C33.6124 19.5437 33.6124 20.8271 32.2165 21.6146L27.3232 24.3668C27.3232 24.3641 27.2278 24.4199 27.2278 24.4199Z" fill="url(#paint1_linear_0_9742)"/>
<path d="M27.3233 24.3641L23.1005 20.1836L10.6346 32.5226C11.0981 33.005 11.8541 33.0644 12.7154 32.5829L27.3233 24.3641Z" fill="url(#paint2_linear_0_9742)"/>
<path d="M27.3233 16.0031L12.7163 7.78429C11.8541 7.30549 11.0981 7.36579 10.6346 7.84729L23.1005 20.1836L27.3233 16.0031Z" fill="url(#paint3_linear_0_9742)"/>
</g>
<defs>
<linearGradient id="paint0_linear_0_9742" x1="22.0068" y1="31.3578" x2="5.38656" y2="14.5701" gradientUnits="userSpaceOnUse">
<stop stop-color="#00A0FF"/>
<stop offset="0.007" stop-color="#00A1FF"/>
<stop offset="0.26" stop-color="#00BEFF"/>
<stop offset="0.512" stop-color="#00D2FF"/>
<stop offset="0.76" stop-color="#00DFFF"/>
<stop offset="1" stop-color="#00E3FF"/>
</linearGradient>
<linearGradient id="paint1_linear_0_9742" x1="34.0468" y1="20.1751" x2="9.84107" y2="20.1751" gradientUnits="userSpaceOnUse">
<stop stop-color="#FFE000"/>
<stop offset="0.409" stop-color="#FFBD00"/>
<stop offset="0.775" stop-color="#FFA500"/>
<stop offset="1" stop-color="#FF9C00"/>
</linearGradient>
<linearGradient id="paint2_linear_0_9742" x1="16.6886" y1="26.1653" x2="-5.84979" y2="3.39986" gradientUnits="userSpaceOnUse">
<stop stop-color="#FF3A44"/>
<stop offset="1" stop-color="#C31162"/>
</linearGradient>
<linearGradient id="paint3_linear_0_9742" x1="-0.845342" y1="31.5461" x2="9.21905" y2="21.3804" gradientUnits="userSpaceOnUse">
<stop stop-color="#32A071"/>
<stop offset="0.069" stop-color="#2DA771"/>
<stop offset="0.476" stop-color="#15CF74"/>
<stop offset="0.801" stop-color="#06E775"/>
<stop offset="1" stop-color="#00F076"/>
</linearGradient>
<clipPath id="clip0_0_9742">
<rect width="135" height="40" fill="white" transform="translate(0.199951 0.183594)"/>
</clipPath>
</defs>
</svg>
