<svg width="28" height="10" viewBox="0 0 28 10" fill="none" xmlns="http://www.w3.org/2000/svg">
<path d="M26.1168 1.00818H24.3566C23.8244 1.00818 23.4151 1.17192 23.1694 1.70408L19.8127 9.35901H22.187C22.187 9.35901 22.5964 8.33562 22.6782 8.09001C22.9238 8.09001 25.2572 8.09001 25.5846 8.09001C25.6665 8.37656 25.8712 9.31807 25.8712 9.31807H27.9998L26.1168 1.00818ZM23.3332 6.37072C23.5379 5.8795 24.2338 4.0374 24.2338 4.0374C24.2338 4.07834 24.4384 3.54618 24.5203 3.25963L24.6841 3.99647C24.6841 3.99647 25.1343 6.0023 25.2162 6.41166H23.3332V6.37072Z" fill="#3362AB"/>
<path d="M19.9766 6.61634C19.9766 8.33563 18.4211 9.48182 16.0059 9.48182C14.9825 9.48182 14.0001 9.27714 13.4679 9.03153L13.7954 7.1485L14.0819 7.2713C14.8188 7.59879 15.31 7.72159 16.2106 7.72159C16.8655 7.72159 17.5614 7.47598 17.5614 6.90289C17.5614 6.53447 17.2749 6.28885 16.3743 5.8795C15.5147 5.47015 14.3685 4.81518 14.3685 3.62805C14.3685 1.99063 15.965 0.885376 18.2164 0.885376C19.076 0.885376 19.8129 1.04912 20.2632 1.25379L19.9357 3.05495L19.772 2.89121C19.3626 2.72747 18.8304 2.56373 18.0527 2.56373C17.193 2.60466 16.7837 2.97308 16.7837 3.30057C16.7837 3.66899 17.2749 3.95553 18.0527 4.32395C19.3626 4.93798 19.9766 5.63389 19.9766 6.61634Z" fill="#3362AB"/>
<path d="M0 1.09007L0.0409354 0.926331H3.56138C4.05261 0.926331 4.42103 1.09007 4.54383 1.62223L5.32161 5.30642C4.54383 3.34152 2.74267 1.74504 0 1.09007Z" fill="#F9B50B"/>
<path d="M10.275 1.00816L6.71361 9.31806H4.29842L2.25165 2.35903C3.72532 3.30054 4.95339 4.77422 5.40368 5.79761L5.64929 6.65725L7.8598 0.967224H10.275V1.00816Z" fill="#3362AB"/>
<path d="M11.2165 0.967224H13.4679L12.0352 9.31806H9.78375L11.2165 0.967224Z" fill="#3362AB"/>
</svg>
