<svg width="28" height="9" viewBox="0 0 28 9" fill="none" xmlns="http://www.w3.org/2000/svg">
<path d="M28 8.27425H0V0.0929565H28V8.27425Z" fill="#13110C"/>
<path d="M9.93635 1.659C9.28833 1.659 8.91031 1.92901 8.91031 2.38802C8.91031 2.68503 9.04532 2.90104 9.36933 2.98204L9.99035 3.17105C10.0714 3.19805 10.1524 3.25205 10.1524 3.33306C10.1524 3.44106 10.0714 3.52206 9.93635 3.52206C9.85535 3.52206 9.80135 3.49506 9.77434 3.44106C9.74734 3.38706 9.72034 3.33306 9.72034 3.27905H8.85631C8.85631 3.87308 9.36933 4.03508 9.90935 4.03508C10.5574 4.03508 10.9894 3.79207 10.9894 3.25205C10.9894 2.98204 10.8544 2.76604 10.5844 2.65803C10.3684 2.55003 10.0444 2.49603 9.88235 2.44202C9.80134 2.41502 9.74734 2.38802 9.74734 2.30702C9.74734 2.22602 9.80135 2.17201 9.96336 2.17201C10.0714 2.17201 10.1524 2.22602 10.1524 2.36102H10.9624C10.9084 1.821 10.5034 1.659 9.93635 1.659ZM22.2488 1.659V6.65417H22.5188V1.659H22.2488ZM25.0839 1.686C24.9219 1.686 24.7869 1.821 24.7869 1.98301C24.7869 2.14501 24.9219 2.28002 25.0839 2.28002C25.2459 2.28002 25.3809 2.14501 25.3809 1.98301C25.4079 1.821 25.2729 1.686 25.0839 1.686ZM2.6731 1.713L3.15911 3.98108H4.13115L4.34715 2.52303L4.56316 3.98108H5.53519L6.02121 1.713H5.21118L5.02217 3.11705L4.80617 1.713H3.88814L3.67213 3.11705L3.45612 1.713H2.6731ZM6.53423 1.713V3.98108H8.26229V3.38706H7.37126V3.14405H8.15429V2.55003H7.37126V2.30702H8.23529V1.713H6.53423ZM11.5024 1.713V2.30702H12.0694V3.95408H12.9605V2.30702H13.5275V1.713H11.5024ZM14.0945 1.713V3.98108H15.8496V3.38706H14.9585V3.14405H15.7416V2.55003H14.9585V2.30702H15.8226V1.713H14.0945ZM16.4976 1.713V3.98108H17.3616V3.17105H17.4696C17.6046 3.17105 17.6586 3.22505 17.6856 3.33306C17.7126 3.52206 17.7396 3.81907 17.7936 3.98108H18.6577C18.5497 3.63007 18.5767 3.33306 18.5227 3.11705C18.4687 2.95504 18.3607 2.84704 18.1446 2.82004C18.4687 2.73903 18.6037 2.55003 18.6037 2.28002C18.6037 1.848 18.3066 1.713 17.8476 1.713H16.4976ZM19.3057 1.713V3.98108H20.0347V2.60403L20.5207 3.98108H21.6008V1.713H20.8717V3.06305L20.3857 1.713H19.3057ZM24.2739 1.713V6.65417H24.5439V1.713H24.2739ZM25.0839 1.713C25.2189 1.713 25.3269 1.821 25.3269 1.98301C25.3269 2.11801 25.2189 2.25302 25.0839 2.25302C24.9489 2.25302 24.8409 2.14501 24.8409 1.98301C24.8409 1.848 24.9489 1.713 25.0839 1.713ZM24.9759 1.821V2.14501H25.0299V2.01001H25.1109L25.1919 2.17201H25.2459L25.1379 2.01001C25.1919 2.01001 25.2459 1.98301 25.2459 1.92901C25.2459 1.875 25.2189 1.848 25.1379 1.848H24.9759V1.821ZM25.0299 1.848H25.1109C25.1649 1.848 25.1919 1.848 25.1919 1.90201C25.1919 1.98301 25.1109 1.95601 25.0839 1.95601H25.0299V1.848ZM17.3886 2.22602H17.4696C17.6316 2.22602 17.7666 2.25302 17.7666 2.41502C17.7666 2.57703 17.6316 2.65803 17.4696 2.65803H17.3886V2.22602ZM17.4696 4.35909C16.6866 4.35909 16.3086 4.84511 16.3086 5.54713C16.3086 6.24916 16.6866 6.73518 17.4696 6.73518C18.2526 6.73518 18.6307 6.24916 18.6307 5.54713C18.6307 4.84511 18.2526 4.35909 17.4696 4.35909ZM8.82931 4.41309V5.92515C8.82931 6.46517 9.20732 6.73518 9.90935 6.73518C10.5844 6.73518 10.9894 6.46517 10.9894 5.92515V4.41309H10.0984V5.87115C10.0984 6.06015 10.0174 6.11415 9.90935 6.11415C9.80135 6.11415 9.72034 6.03315 9.72034 5.87115V4.41309H8.82931ZM11.7184 4.41309V6.68117H12.4474V5.30413L12.9335 6.68117H14.0135V4.41309H13.2845V5.79014L12.7985 4.41309H11.7184ZM14.7425 4.41309V6.68117H15.6336V4.41309H14.7425ZM19.3057 4.41309V6.68117H20.0347V5.30413L20.5207 6.68117H21.6008V4.41309H20.8717V5.79014L20.3857 4.41309H19.3057ZM17.4696 4.95311C17.6046 4.95311 17.7126 5.03412 17.7126 5.54713C17.7126 6.06015 17.6046 6.14116 17.4696 6.14116C17.3346 6.14116 17.2266 6.06015 17.2266 5.54713C17.2266 5.03412 17.3346 4.95311 17.4696 4.95311Z" fill="#FFDF27"/>
</svg>
